<mxfile host="65bd71144e">
    <diagram id="7OWZ9Qd7O6sfz0Zs_vyO" name="Page-1">
        <mxGraphModel dx="1594" dy="407" grid="1" gridSize="10" guides="1" tooltips="1" connect="1" arrows="1" fold="1" page="1" pageScale="1" pageWidth="827" pageHeight="1169" math="0" shadow="0">
            <root>
                <mxCell id="0"/>
                <mxCell id="1" parent="0"/>
                <mxCell id="9" style="edgeStyle=none;html=1;" parent="1" source="2" target="5" edge="1">
                    <mxGeometry relative="1" as="geometry"/>
                </mxCell>
                <mxCell id="2" value="Start" style="strokeWidth=2;html=1;shape=mxgraph.flowchart.terminator;whiteSpace=wrap;" parent="1" vertex="1">
                    <mxGeometry x="120" y="205" width="100" height="60" as="geometry"/>
                </mxCell>
                <mxCell id="21" style="edgeStyle=none;html=1;" parent="1" source="4" target="15" edge="1">
                    <mxGeometry relative="1" as="geometry"/>
                </mxCell>
                <mxCell id="30" value="True" style="edgeLabel;html=1;align=center;verticalAlign=middle;resizable=0;points=[];" parent="21" vertex="1" connectable="0">
                    <mxGeometry x="-0.48" y="3" relative="1" as="geometry">
                        <mxPoint as="offset"/>
                    </mxGeometry>
                </mxCell>
                <mxCell id="25" style="edgeStyle=none;html=1;" parent="1" source="4" target="22" edge="1">
                    <mxGeometry relative="1" as="geometry">
                        <Array as="points">
                            <mxPoint x="425" y="535"/>
                        </Array>
                    </mxGeometry>
                </mxCell>
                <mxCell id="27" value="Flase" style="edgeLabel;html=1;align=center;verticalAlign=middle;resizable=0;points=[];" parent="25" vertex="1" connectable="0">
                    <mxGeometry x="-0.7083" y="3" relative="1" as="geometry">
                        <mxPoint as="offset"/>
                    </mxGeometry>
                </mxCell>
                <mxCell id="4" value="if&lt;br&gt;startButton is&lt;br&gt;clicked" style="strokeWidth=2;html=1;shape=mxgraph.flowchart.decision;whiteSpace=wrap;" parent="1" vertex="1">
                    <mxGeometry x="200" y="470" width="120" height="130" as="geometry"/>
                </mxCell>
                <mxCell id="10" style="edgeStyle=none;html=1;" parent="1" source="5" target="7" edge="1">
                    <mxGeometry relative="1" as="geometry"/>
                </mxCell>
                <mxCell id="5" value="load&lt;br&gt;splashScene" style="shape=parallelogram;html=1;strokeWidth=2;perimeter=parallelogramPerimeter;whiteSpace=wrap;rounded=1;arcSize=12;size=0.23;" parent="1" vertex="1">
                    <mxGeometry x="234" y="200" width="116" height="70" as="geometry"/>
                </mxCell>
                <mxCell id="18" style="edgeStyle=none;html=1;" parent="1" source="7" target="17" edge="1">
                    <mxGeometry relative="1" as="geometry"/>
                </mxCell>
                <mxCell id="7" value="load&lt;br&gt;titleScene" style="shape=parallelogram;html=1;strokeWidth=2;perimeter=parallelogramPerimeter;whiteSpace=wrap;rounded=1;arcSize=12;size=0.23;" parent="1" vertex="1">
                    <mxGeometry x="356" y="200" width="116" height="70" as="geometry"/>
                </mxCell>
                <mxCell id="13" style="edgeStyle=none;html=1;entryX=0.5;entryY=0;entryDx=0;entryDy=0;entryPerimeter=0;" parent="1" source="11" target="4" edge="1">
                    <mxGeometry relative="1" as="geometry">
                        <Array as="points">
                            <mxPoint x="260" y="415"/>
                        </Array>
                    </mxGeometry>
                </mxCell>
                <mxCell id="11" value="load&lt;br&gt;controlsScene" style="shape=parallelogram;html=1;strokeWidth=2;perimeter=parallelogramPerimeter;whiteSpace=wrap;rounded=1;arcSize=12;size=0.23;" parent="1" vertex="1">
                    <mxGeometry x="356" y="380" width="116" height="70" as="geometry"/>
                </mxCell>
                <mxCell id="42" style="edgeStyle=none;html=1;" edge="1" parent="1" source="15" target="41">
                    <mxGeometry relative="1" as="geometry"/>
                </mxCell>
                <mxCell id="15" value="load&lt;br&gt;gameSceneNormal" style="shape=parallelogram;html=1;strokeWidth=2;perimeter=parallelogramPerimeter;whiteSpace=wrap;rounded=1;arcSize=12;size=0.23;" parent="1" vertex="1">
                    <mxGeometry x="180" y="670" width="160" height="80" as="geometry"/>
                </mxCell>
                <mxCell id="19" style="edgeStyle=none;html=1;" parent="1" source="17" target="11" edge="1">
                    <mxGeometry relative="1" as="geometry"/>
                </mxCell>
                <mxCell id="17" value="load&lt;br&gt;menuScene" style="shape=parallelogram;html=1;strokeWidth=2;perimeter=parallelogramPerimeter;whiteSpace=wrap;rounded=1;arcSize=12;size=0.23;" parent="1" vertex="1">
                    <mxGeometry x="356" y="290" width="116" height="70" as="geometry"/>
                </mxCell>
                <mxCell id="22" value="console.log&lt;br&gt;(error)" style="shape=parallelogram;html=1;strokeWidth=2;perimeter=parallelogramPerimeter;whiteSpace=wrap;rounded=1;arcSize=12;size=0.23;" parent="1" vertex="1">
                    <mxGeometry x="370" y="630" width="110" height="70" as="geometry"/>
                </mxCell>
                <mxCell id="65" style="edgeStyle=none;html=1;" edge="1" parent="1" source="32" target="58">
                    <mxGeometry relative="1" as="geometry">
                        <Array as="points">
                            <mxPoint x="-100" y="705"/>
                        </Array>
                    </mxGeometry>
                </mxCell>
                <mxCell id="87" value="False" style="edgeLabel;html=1;align=center;verticalAlign=middle;resizable=0;points=[];" vertex="1" connectable="0" parent="65">
                    <mxGeometry x="-0.5624" y="1" relative="1" as="geometry">
                        <mxPoint as="offset"/>
                    </mxGeometry>
                </mxCell>
                <mxCell id="66" style="edgeStyle=none;html=1;entryX=0;entryY=0.25;entryDx=0;entryDy=0;" edge="1" parent="1" source="32" target="17">
                    <mxGeometry relative="1" as="geometry">
                        <Array as="points">
                            <mxPoint x="-240" y="970"/>
                            <mxPoint x="-240" y="313"/>
                        </Array>
                    </mxGeometry>
                </mxCell>
                <mxCell id="88" value="True" style="edgeLabel;html=1;align=center;verticalAlign=middle;resizable=0;points=[];" vertex="1" connectable="0" parent="66">
                    <mxGeometry x="-0.7481" y="3" relative="1" as="geometry">
                        <mxPoint as="offset"/>
                    </mxGeometry>
                </mxCell>
                <mxCell id="32" value="if&lt;br&gt;player collides&lt;br&gt;Car" style="strokeWidth=2;html=1;shape=mxgraph.flowchart.decision;whiteSpace=wrap;" parent="1" vertex="1">
                    <mxGeometry x="-160" y="905" width="120" height="130" as="geometry"/>
                </mxCell>
                <mxCell id="48" style="edgeStyle=none;html=1;" edge="1" parent="1" source="41" target="43">
                    <mxGeometry relative="1" as="geometry"/>
                </mxCell>
                <mxCell id="41" value="Generate&lt;br&gt;random number&lt;br&gt;between 1 &amp;amp; 25&amp;nbsp;" style="rounded=1;whiteSpace=wrap;html=1;absoluteArcSize=1;arcSize=14;strokeWidth=2;" vertex="1" parent="1">
                    <mxGeometry x="210" y="790" width="100" height="100" as="geometry"/>
                </mxCell>
                <mxCell id="49" style="edgeStyle=none;html=1;" edge="1" parent="1" source="43" target="46">
                    <mxGeometry relative="1" as="geometry"/>
                </mxCell>
                <mxCell id="50" value="True" style="edgeLabel;html=1;align=center;verticalAlign=middle;resizable=0;points=[];" vertex="1" connectable="0" parent="49">
                    <mxGeometry x="-0.3931" relative="1" as="geometry">
                        <mxPoint x="-5" as="offset"/>
                    </mxGeometry>
                </mxCell>
                <mxCell id="51" style="edgeStyle=none;html=1;" edge="1" parent="1" source="43" target="47">
                    <mxGeometry relative="1" as="geometry"/>
                </mxCell>
                <mxCell id="52" value="False" style="edgeLabel;html=1;align=center;verticalAlign=middle;resizable=0;points=[];" vertex="1" connectable="0" parent="51">
                    <mxGeometry x="-0.2968" y="-2" relative="1" as="geometry">
                        <mxPoint as="offset"/>
                    </mxGeometry>
                </mxCell>
                <mxCell id="95" value="" style="edgeStyle=none;html=1;" edge="1" parent="1" source="43">
                    <mxGeometry relative="1" as="geometry">
                        <mxPoint x="140" y="970" as="targetPoint"/>
                    </mxGeometry>
                </mxCell>
                <mxCell id="43" value="if&lt;br&gt;number &amp;gt;&lt;br&gt;1" style="strokeWidth=2;html=1;shape=mxgraph.flowchart.decision;whiteSpace=wrap;" vertex="1" parent="1">
                    <mxGeometry x="210" y="920" width="100" height="100" as="geometry"/>
                </mxCell>
                <mxCell id="56" style="edgeStyle=none;html=1;entryX=0.5;entryY=1;entryDx=0;entryDy=0;entryPerimeter=0;" edge="1" parent="1" source="46" target="54">
                    <mxGeometry relative="1" as="geometry">
                        <Array as="points">
                            <mxPoint x="20" y="970"/>
                        </Array>
                    </mxGeometry>
                </mxCell>
                <mxCell id="64" style="edgeStyle=none;html=1;" edge="1" parent="1" source="46" target="32">
                    <mxGeometry relative="1" as="geometry"/>
                </mxCell>
                <mxCell id="46" value="Create&amp;nbsp;&lt;br&gt;Car" style="rounded=1;whiteSpace=wrap;html=1;absoluteArcSize=1;arcSize=14;strokeWidth=2;" vertex="1" parent="1">
                    <mxGeometry x="90" y="935" width="70" height="70" as="geometry"/>
                </mxCell>
                <mxCell id="69" style="edgeStyle=none;html=1;entryX=0.5;entryY=1;entryDx=0;entryDy=0;entryPerimeter=0;" edge="1" parent="1" source="47" target="55">
                    <mxGeometry relative="1" as="geometry">
                        <Array as="points">
                            <mxPoint x="425" y="1125"/>
                        </Array>
                    </mxGeometry>
                </mxCell>
                <mxCell id="72" style="edgeStyle=none;html=1;" edge="1" parent="1" source="47" target="53">
                    <mxGeometry relative="1" as="geometry"/>
                </mxCell>
                <mxCell id="47" value="Create&lt;br&gt;goldCar" style="rounded=1;whiteSpace=wrap;html=1;absoluteArcSize=1;arcSize=14;strokeWidth=2;" vertex="1" parent="1">
                    <mxGeometry x="225" y="1090" width="70" height="70" as="geometry"/>
                </mxCell>
                <mxCell id="82" style="edgeStyle=none;html=1;" edge="1" parent="1" source="53" target="74">
                    <mxGeometry relative="1" as="geometry"/>
                </mxCell>
                <mxCell id="86" value="True" style="edgeLabel;html=1;align=center;verticalAlign=middle;resizable=0;points=[];" vertex="1" connectable="0" parent="82">
                    <mxGeometry x="-0.4856" y="2" relative="1" as="geometry">
                        <mxPoint as="offset"/>
                    </mxGeometry>
                </mxCell>
                <mxCell id="83" style="edgeStyle=none;html=1;" edge="1" parent="1" source="53" target="73">
                    <mxGeometry relative="1" as="geometry"/>
                </mxCell>
                <mxCell id="85" value="False" style="edgeLabel;html=1;align=center;verticalAlign=middle;resizable=0;points=[];" vertex="1" connectable="0" parent="83">
                    <mxGeometry x="-0.5796" y="-2" relative="1" as="geometry">
                        <mxPoint as="offset"/>
                    </mxGeometry>
                </mxCell>
                <mxCell id="53" value="if&lt;br&gt;player collides&lt;br&gt;goldCar" style="strokeWidth=2;html=1;shape=mxgraph.flowchart.decision;whiteSpace=wrap;" vertex="1" parent="1">
                    <mxGeometry x="20" y="1060" width="120" height="130" as="geometry"/>
                </mxCell>
                <mxCell id="77" style="edgeStyle=none;html=1;entryX=0;entryY=0.5;entryDx=0;entryDy=0;" edge="1" parent="1" source="54" target="75">
                    <mxGeometry relative="1" as="geometry"/>
                </mxCell>
                <mxCell id="78" value="True" style="edgeLabel;html=1;align=center;verticalAlign=middle;resizable=0;points=[];" vertex="1" connectable="0" parent="77">
                    <mxGeometry x="-0.5633" y="-2" relative="1" as="geometry">
                        <mxPoint x="15" y="-2" as="offset"/>
                    </mxGeometry>
                </mxCell>
                <mxCell id="79" style="edgeStyle=none;html=1;" edge="1" parent="1" source="54" target="58">
                    <mxGeometry relative="1" as="geometry"/>
                </mxCell>
                <mxCell id="81" value="False" style="edgeLabel;html=1;align=center;verticalAlign=middle;resizable=0;points=[];" vertex="1" connectable="0" parent="79">
                    <mxGeometry x="-0.5453" y="5" relative="1" as="geometry">
                        <mxPoint x="5" y="-16" as="offset"/>
                    </mxGeometry>
                </mxCell>
                <mxCell id="54" value="if&lt;br&gt;Car collides&lt;br&gt;border" style="strokeWidth=2;html=1;shape=mxgraph.flowchart.decision;whiteSpace=wrap;" vertex="1" parent="1">
                    <mxGeometry x="-40" y="775" width="120" height="130" as="geometry"/>
                </mxCell>
                <mxCell id="67" style="edgeStyle=none;html=1;" edge="1" parent="1" source="55" target="22">
                    <mxGeometry relative="1" as="geometry"/>
                </mxCell>
                <mxCell id="68" value="False" style="edgeLabel;html=1;align=center;verticalAlign=middle;resizable=0;points=[];" vertex="1" connectable="0" parent="67">
                    <mxGeometry x="-0.3539" y="3" relative="1" as="geometry">
                        <mxPoint as="offset"/>
                    </mxGeometry>
                </mxCell>
                <mxCell id="70" style="edgeStyle=none;html=1;" edge="1" parent="1" source="55" target="41">
                    <mxGeometry relative="1" as="geometry">
                        <Array as="points">
                            <mxPoint x="350" y="985"/>
                            <mxPoint x="350" y="840"/>
                        </Array>
                    </mxGeometry>
                </mxCell>
                <mxCell id="71" value="True" style="edgeLabel;html=1;align=center;verticalAlign=middle;resizable=0;points=[];" vertex="1" connectable="0" parent="70">
                    <mxGeometry x="-0.2764" y="1" relative="1" as="geometry">
                        <mxPoint y="1" as="offset"/>
                    </mxGeometry>
                </mxCell>
                <mxCell id="55" value="if&lt;br&gt;goldCar collides&lt;br&gt;border" style="strokeWidth=2;html=1;shape=mxgraph.flowchart.decision;whiteSpace=wrap;" vertex="1" parent="1">
                    <mxGeometry x="365" y="920" width="120" height="130" as="geometry"/>
                </mxCell>
                <mxCell id="58" value="console.log&lt;br&gt;(error)" style="shape=parallelogram;html=1;strokeWidth=2;perimeter=parallelogramPerimeter;whiteSpace=wrap;rounded=1;arcSize=12;size=0.23;" vertex="1" parent="1">
                    <mxGeometry x="-40" y="670" width="110" height="70" as="geometry"/>
                </mxCell>
                <mxCell id="73" value="console.log&lt;br&gt;(error)" style="shape=parallelogram;html=1;strokeWidth=2;perimeter=parallelogramPerimeter;whiteSpace=wrap;rounded=1;arcSize=12;size=0.23;" vertex="1" parent="1">
                    <mxGeometry x="25" y="1240" width="110" height="70" as="geometry"/>
                </mxCell>
                <mxCell id="74" value="score += 25" style="rounded=1;whiteSpace=wrap;html=1;absoluteArcSize=1;arcSize=14;strokeWidth=2;" vertex="1" parent="1">
                    <mxGeometry x="-100" y="1090" width="70" height="70" as="geometry"/>
                </mxCell>
                <mxCell id="76" style="edgeStyle=none;html=1;" edge="1" parent="1" source="75" target="41">
                    <mxGeometry relative="1" as="geometry"/>
                </mxCell>
                <mxCell id="75" value="score += 1" style="rounded=1;whiteSpace=wrap;html=1;absoluteArcSize=1;arcSize=14;strokeWidth=2;" vertex="1" parent="1">
                    <mxGeometry x="140" y="815" width="45" height="50" as="geometry"/>
                </mxCell>
            </root>
        </mxGraphModel>
    </diagram>
</mxfile>